<svg width="42" height="42" viewBox="0 0 42 42" fill="none" xmlns="http://www.w3.org/2000/svg">
<g opacity="0.6">
<circle cx="21" cy="20.9983" r="20" stroke="white" stroke-width="2"/>
<path d="M24.5554 29.981C24.1325 29.775 23.8157 29.5431 23.4719 29.224C23.1501 28.9296 22.8246 28.6478 22.4788 28.3796C22.0727 28.0629 21.6924 27.7261 21.3123 27.381C21.0279 27.1241 20.7374 26.8803 20.434 26.6443C20.0294 26.3296 19.6511 25.9943 19.2729 25.6508C18.9884 25.394 18.6979 25.1501 18.3945 24.9141C17.9902 24.5996 17.612 24.2647 17.2341 23.9212C16.9431 23.6582 16.6447 23.4098 16.3338 23.1685C15.0869 22.1971 15.0869 22.1971 15.0087 21.7338C14.9832 21.3345 14.998 21.0697 15.2716 20.7587C15.3894 20.6445 15.5102 20.5333 15.6328 20.424C15.7099 20.3526 15.787 20.2813 15.8665 20.2077C16.3413 19.7732 16.8365 19.369 17.3453 18.9722C17.6684 18.7106 17.9738 18.4325 18.281 18.1535C18.637 17.8321 19.0082 17.5344 19.3877 17.2392C19.6606 17.0187 19.9199 16.7871 20.1791 16.5518C20.5817 16.1861 20.9966 15.8439 21.4272 15.5091C21.7 15.2886 21.9594 15.057 22.2185 14.8216C22.6316 14.4467 23.0561 14.092 23.4978 13.7487C23.6846 13.6023 23.8655 13.4515 24.0455 13.2975C24.415 12.9989 24.678 12.9775 25.1502 13.0091C25.4992 13.1586 25.7138 13.3547 25.915 13.6682C26.0188 13.9994 26.0261 14.2497 25.915 14.5796C25.529 15.1293 25.0029 15.5187 24.4724 15.9323C24.1934 16.1576 23.9279 16.3935 23.6631 16.6342C23.2605 16.9998 22.8455 17.342 22.415 17.6769C22.1422 17.8973 21.8828 18.129 21.6237 18.3643C21.221 18.73 20.8061 19.0721 20.3756 19.407C20.054 19.6669 19.7499 19.9431 19.4452 20.2214C19.069 20.5627 18.6745 20.8699 18.2628 21.1706C18.2081 21.2233 18.1534 21.276 18.0971 21.3303C18.0971 21.439 18.0971 21.5478 18.0971 21.6598C18.2719 21.8285 18.442 21.9747 18.6335 22.1232C18.7436 22.2114 18.8536 22.2997 18.9635 22.3881C19.0184 22.432 19.0733 22.4758 19.1299 22.521C19.3498 22.6996 19.5596 22.8869 19.7701 23.0759C20.0653 23.3387 20.3659 23.5894 20.6783 23.8328C21.0859 24.1514 21.4682 24.4898 21.85 24.8365C22.1345 25.0934 22.425 25.3373 22.7284 25.5732C23.1326 25.8877 23.5106 26.2225 23.8884 26.5658C24.1832 26.8322 24.4855 27.0842 24.7997 27.3291C25.9058 28.1949 25.9058 28.1949 26 28.6628C26 29.1697 25.8875 29.4145 25.5386 29.7876C25.246 30.031 24.9218 30.0106 24.5554 29.981Z" fill="white"/>
</g>
</svg>
