<svg width="60" height="60" viewBox="0 0 60 60" fill="none" xmlns="http://www.w3.org/2000/svg">
<circle cx="30" cy="30" r="28.75" stroke="white" stroke-width="2.5"/>
<path d="M27.0398 12.349C26.9938 12.3616 26.9477 12.3742 26.9003 12.3872C25.1866 12.8648 23.3862 13.971 22.2962 15.3899C22.1849 15.4875 22.1849 15.4875 22.0016 15.4581C21.9258 15.4428 21.85 15.4275 21.772 15.4118C19.5645 15.0454 17.2843 15.6358 15.4547 16.8982C15.1073 17.1538 14.7991 17.4514 14.4941 17.7555C14.406 17.8428 14.406 17.8428 14.3162 17.932C12.6668 19.5946 11.827 21.6945 11.8341 24.0327C11.8342 24.1058 11.8342 24.1058 11.8343 24.1804C11.8376 24.9772 11.897 25.7256 12.1374 26.489C12.1545 26.5438 12.1716 26.5987 12.1892 26.6552C12.8585 28.739 14.2616 30.549 16.189 31.6063C16.2649 31.6484 16.2649 31.6484 16.3424 31.6914C16.4655 31.7597 16.5888 31.8276 16.7121 31.8954C16.7122 31.9548 16.7123 32.0141 16.7124 32.0753C16.715 33.5235 16.7191 34.9717 16.7248 36.4199C16.7276 37.1203 16.7298 37.8206 16.7309 38.521C16.7318 39.1319 16.7337 39.7427 16.7367 40.3536C16.7382 40.6767 16.7393 40.9997 16.7392 41.3228C16.7392 41.6277 16.7405 41.9326 16.7427 42.2376C16.7432 42.3487 16.7434 42.4597 16.743 42.5708C16.7385 44.0333 17.1198 45.3097 18.1677 46.3819C19.0727 47.1768 20.0939 47.5942 21.298 47.5876C21.372 47.588 21.446 47.5885 21.5223 47.5889C21.7683 47.59 22.0143 47.5897 22.2603 47.5894C22.4376 47.5899 22.6148 47.5905 22.792 47.5912C23.2223 47.5925 23.6525 47.5929 24.0828 47.5928C24.4329 47.5927 24.783 47.593 25.1331 47.5935C25.2343 47.5936 25.3355 47.5938 25.4366 47.5939C25.5122 47.594 25.5122 47.594 25.5893 47.5942C26.5402 47.5955 27.4912 47.5954 28.4422 47.5949C29.31 47.5945 30.1779 47.596 31.0457 47.5983C31.939 47.6006 32.8322 47.6017 33.7255 47.6013C34.2261 47.6012 34.7267 47.6015 35.2273 47.6033C35.6985 47.6049 36.1696 47.6047 36.6407 47.6033C36.8129 47.603 36.9852 47.6034 37.1574 47.6044C38.6695 47.6125 39.9528 47.4086 41.1039 46.3283C42.1606 45.2047 42.4705 43.9028 42.4652 42.4082C42.4658 42.2926 42.4666 42.1771 42.4674 42.0615C42.4693 41.7515 42.4696 41.4415 42.4695 41.1316C42.4697 40.8062 42.4715 40.4809 42.4731 40.1555C42.4759 39.5411 42.4773 38.9267 42.4782 38.3123C42.4793 37.6121 42.482 36.912 42.4848 36.2118C42.4905 34.773 42.4943 33.3342 42.4967 31.8954C42.573 31.853 42.6494 31.8106 42.728 31.7669C42.829 31.7105 42.9301 31.6541 43.0311 31.5977C43.0813 31.5698 43.1315 31.5419 43.1832 31.5132C43.5385 31.3144 43.8667 31.1024 44.1776 30.8384C44.2457 30.7815 44.2457 30.7815 44.3153 30.7234C45.6891 29.553 46.6578 28.0206 47.1407 26.281C47.1629 26.2039 47.185 26.1268 47.2079 26.0474C47.7408 23.7949 47.2656 21.3933 46.1169 19.4184C45.8883 19.0481 45.6174 18.7125 45.3386 18.3793C45.295 18.3259 45.2514 18.2726 45.2064 18.2176C43.8254 16.5761 41.7601 15.6163 39.6592 15.3468C38.9606 15.2974 38.2416 15.2718 37.5529 15.4076C37.1632 15.4947 37.1632 15.4947 36.8016 15.3758C36.6749 15.2291 36.5724 15.0759 36.4664 14.9136C34.2368 12.3602 30.242 11.4231 27.0398 12.349ZM34.8029 16.8544C35.997 18.215 36.5352 19.8303 36.6354 21.624C36.6659 22.0523 36.812 22.2764 37.1336 22.5598C37.489 22.8123 37.8431 22.7929 38.2686 22.746C38.5736 22.6339 38.76 22.494 38.9403 22.2237C39.0628 21.8996 39.0622 21.6124 39.057 21.2688C39.0563 21.2011 39.0556 21.1334 39.0549 21.0636C39.0315 19.9531 38.7436 18.9467 38.4072 17.8941C40.2092 17.8191 41.6591 18.4564 43.0011 19.6258C44.0737 20.6287 44.7653 22.1114 44.8534 23.5778C44.8578 23.6441 44.8623 23.7104 44.8669 23.7787C44.9241 25.4139 44.351 26.9634 43.2611 28.1788C42.5591 28.9301 41.7636 29.4289 40.8174 29.8221C40.4705 29.9727 40.2845 30.1248 40.0707 30.4398C39.2229 32.9833 39.8872 35.7993 39.8628 38.4802C33.0923 38.4802 26.3217 38.4802 19.346 38.4802C19.3231 35.9641 19.3003 33.448 19.2767 30.8557C19.0496 30.25 18.8996 30.0638 18.3534 29.8063C18.2425 29.7572 18.1315 29.7085 18.0204 29.6601C16.4669 28.9495 15.3562 27.752 14.7169 26.1741C14.5853 25.7997 14.4956 25.4234 14.4247 25.0334C14.4111 24.9602 14.4111 24.9602 14.3971 24.8855C14.1631 23.3737 14.5749 21.7884 15.4398 20.541C15.6815 20.2139 15.9394 19.9144 16.2269 19.6269C16.2993 19.5546 16.2993 19.5546 16.3731 19.4807C17.5295 18.3919 19.0505 17.8501 20.6259 17.8868C20.6839 17.8892 20.7418 17.8916 20.8016 17.8941C20.7876 17.9398 20.7736 17.9854 20.7592 18.0325C20.4296 19.1166 20.1725 20.1101 20.1518 21.2471C20.1499 21.3123 20.1481 21.3775 20.1462 21.4447C20.1453 21.8708 20.2036 22.1216 20.455 22.4688C20.8117 22.7586 21.1177 22.7899 21.5727 22.7723C21.8756 22.7324 22.0183 22.6628 22.2572 22.4688C22.577 22.0352 22.5931 21.6134 22.6341 21.0868C22.8191 19.1573 23.6249 17.4804 25.099 16.1867C28.041 13.7776 32.182 14.1803 34.8029 16.8544ZM39.8628 40.9755C40.0293 42.9715 40.0293 42.9715 39.2436 44.5248C38.8482 44.8678 38.3548 45.073 37.8317 45.0743C37.7425 45.0748 37.7425 45.0748 37.6514 45.0752C37.5864 45.0752 37.5214 45.0752 37.4544 45.0752C37.3851 45.0754 37.3158 45.0757 37.2443 45.076C37.0113 45.0767 36.7783 45.077 36.5453 45.0773C36.3786 45.0777 36.2118 45.0781 36.045 45.0786C35.5439 45.08 35.0429 45.0807 34.5418 45.0813C34.3057 45.0816 34.0695 45.082 33.8334 45.0824C33.0479 45.0835 32.2625 45.0845 31.4771 45.085C31.2734 45.0852 31.0696 45.0853 30.8659 45.0854C30.7899 45.0855 30.7899 45.0855 30.7125 45.0855C29.8928 45.0861 29.0731 45.0879 28.2533 45.0901C27.4111 45.0924 26.5689 45.0937 25.7266 45.0939C25.254 45.094 24.7814 45.0946 24.3088 45.0964C23.8639 45.0981 23.4191 45.0983 22.9743 45.0976C22.8113 45.0976 22.6483 45.098 22.4853 45.099C22.2622 45.1002 22.0391 45.0997 21.816 45.0988C21.7201 45.0999 21.7201 45.0999 21.6222 45.1011C20.9483 45.0945 20.3666 44.8969 19.8764 44.4268C18.9773 43.4512 19.346 42.3394 19.346 40.9755C26.1165 40.9755 32.8871 40.9755 39.8628 40.9755Z" fill="white"/>
<path d="M36.8566 26.6361C36.3672 26.9857 36.1604 27.4915 35.9122 28.0224C35.8735 28.1041 35.8347 28.1859 35.7948 28.2701C35.6922 28.4868 35.5904 28.7039 35.4889 28.9212C35.4274 29.0525 35.3658 29.1838 35.3041 29.3151C35.1844 29.5699 35.0652 29.825 34.9462 30.0801C34.9102 30.1572 34.8742 30.2343 34.8372 30.3137C34.6524 30.7125 34.4709 31.1128 34.2944 31.5154C34.2601 31.5933 34.2258 31.6712 34.1905 31.7515C34.0341 32.166 34.0479 32.4856 34.227 32.8873C34.393 33.1813 34.5962 33.3437 34.8898 33.5068C35.2689 33.6102 35.6287 33.6126 35.9945 33.4592C36.626 33.0845 36.8758 32.2478 37.1599 31.605C37.2508 31.4016 37.3421 31.1983 37.4333 30.995C37.4564 30.9435 37.4794 30.892 37.5032 30.8389C37.7698 30.2443 38.0467 29.6544 38.3242 29.0648C38.3836 28.9385 38.4429 28.8121 38.5023 28.6858C38.5359 28.6143 38.5696 28.5428 38.6043 28.4692C38.7676 28.1076 38.8297 27.7637 38.7067 27.3812C38.5515 27.0413 38.3658 26.8415 38.0609 26.6275C37.6702 26.4972 37.2459 26.5064 36.8566 26.6361Z" fill="white"/>
<path d="M21.1234 26.6361C20.8039 26.8644 20.5568 27.1445 20.4562 27.5285C20.3479 28.4109 20.9988 29.3403 21.3703 30.1191C21.4757 30.3406 21.5809 30.5622 21.686 30.7838C21.7117 30.8379 21.7373 30.892 21.7637 30.9477C22.005 31.4579 22.2382 31.9715 22.4633 32.489C22.6701 32.9556 22.8768 33.2917 23.3531 33.5082C23.731 33.6333 24.0681 33.6058 24.4288 33.4418C24.7228 33.2759 24.8851 33.0727 25.0483 32.779C25.209 32.1896 25.0418 31.7549 24.7797 31.2238C24.7097 31.0769 24.6398 30.93 24.5698 30.783C24.5323 30.7053 24.4948 30.6276 24.4561 30.5476C24.2894 30.2002 24.1274 29.8507 23.9651 29.5012C23.8818 29.3217 23.7981 29.1423 23.7139 28.9632C23.5391 28.591 23.3648 28.2189 23.1995 27.8423C23.1632 27.761 23.1632 27.761 23.1262 27.678C23.0842 27.5835 23.0431 27.4885 23.0033 27.393C22.8513 27.0545 22.6297 26.8344 22.3277 26.6275C21.937 26.4972 21.5127 26.5064 21.1234 26.6361Z" fill="white"/>
<path d="M28.8994 24.5985C28.6347 24.7835 28.4598 25.0019 28.3568 25.3109C28.3487 25.4924 28.3445 25.6722 28.3435 25.8538C28.3426 25.9367 28.3426 25.9367 28.3417 26.0212C28.34 26.2042 28.3389 26.3872 28.3379 26.5702C28.3375 26.6328 28.3371 26.6954 28.3368 26.7598C28.3349 27.0913 28.3336 27.4227 28.3326 27.7541C28.3316 28.0279 28.3297 28.3017 28.3269 28.5756C28.3235 28.9066 28.3217 29.2376 28.3212 29.5686C28.3208 29.6945 28.3197 29.8203 28.3181 29.9462C28.3033 31.1338 28.3033 31.1338 28.6039 31.5261C28.9005 31.8014 29.2026 31.9106 29.6045 31.9303C30.0061 31.9106 30.3089 31.8017 30.6049 31.5258C30.9879 31.0244 30.8992 30.3647 30.8933 29.7659C30.8932 29.6387 30.8932 29.5115 30.8933 29.3843C30.8932 29.1185 30.8919 28.8528 30.8897 28.587C30.8869 28.2468 30.8866 27.9068 30.8871 27.5666C30.8874 27.3043 30.8865 27.0419 30.8853 26.7796C30.8849 26.6542 30.8846 26.5288 30.8847 26.4034C30.8846 26.228 30.8831 26.0527 30.8812 25.8774C30.8814 25.826 30.8816 25.7746 30.8818 25.7216C30.8765 25.3952 30.8164 25.1721 30.6442 24.895C30.1144 24.3883 29.5548 24.236 28.8994 24.5985Z" fill="white"/>
</svg>
