<svg width="42" height="42" viewBox="0 0 42 42" fill="none" xmlns="http://www.w3.org/2000/svg">
<g opacity="0.6">
<circle cx="21" cy="20.9983" r="20" stroke="white" stroke-width="2"/>
<path d="M17.4446 13.0156C17.8675 13.2215 18.1843 13.4535 18.5281 13.7725C18.8499 14.0669 19.1754 14.3488 19.5212 14.617C19.9273 14.9337 20.3076 15.2705 20.6877 15.6156C20.9721 15.8724 21.2626 16.1163 21.566 16.3523C21.9706 16.667 22.3489 17.0023 22.7271 17.3458C23.0116 17.6026 23.3021 17.8465 23.6055 18.0824C24.0098 18.397 24.388 18.7319 24.7659 19.0754C25.0569 19.3384 25.3553 19.5868 25.6662 19.828C26.9131 20.7995 26.9131 20.7995 26.9913 21.2627C27.0168 21.662 27.002 21.9269 26.7284 22.2379C26.6106 22.352 26.4898 22.4633 26.3672 22.5726C26.2901 22.6439 26.213 22.7153 26.1335 22.7888C25.6587 23.2234 25.1635 23.6276 24.6547 24.0243C24.3316 24.286 24.0262 24.5641 23.719 24.8431C23.363 25.1645 22.9918 25.4622 22.6123 25.7574C22.3394 25.9778 22.0801 26.2095 21.8209 26.4448C21.4183 26.8105 21.0034 27.1526 20.5728 27.4875C20.3 27.708 20.0407 27.9396 19.7815 28.175C19.3684 28.5499 18.9439 28.9045 18.5022 29.2479C18.3154 29.3943 18.1345 29.545 17.9545 29.6991C17.585 29.9976 17.322 30.0191 16.8498 29.9875C16.5008 29.838 16.2862 29.6419 16.085 29.3284C15.9812 28.9972 15.9739 28.7469 16.085 28.417C16.471 27.8672 16.9971 27.4779 17.5276 27.0643C17.8066 26.8389 18.0721 26.6031 18.3369 26.3624C18.7395 25.9967 19.1545 25.6546 19.585 25.3197C19.8578 25.0992 20.1172 24.8676 20.3763 24.6323C20.779 24.2666 21.1939 23.9244 21.6244 23.5896C21.946 23.3297 22.2501 23.0534 22.5548 22.7752C22.931 22.4339 23.3255 22.1266 23.7372 21.8259C23.7919 21.7733 23.8466 21.7206 23.9029 21.6663C23.9029 21.5576 23.9029 21.4488 23.9029 21.3368C23.7281 21.1681 23.558 21.0219 23.3665 20.8733C23.2564 20.7852 23.1464 20.6969 23.0365 20.6085C22.9816 20.5646 22.9267 20.5208 22.8701 20.4756C22.6502 20.2969 22.4404 20.1097 22.2299 19.9207C21.9347 19.6579 21.6341 19.4072 21.3217 19.1638C20.9141 18.8452 20.5318 18.5068 20.15 18.16C19.8655 17.9032 19.575 17.6593 19.2716 17.4233C18.8674 17.1089 18.4894 16.7741 18.1116 16.4308C17.8168 16.1644 17.5145 15.9124 17.2003 15.6675C16.0942 14.8017 16.0942 14.8017 16 14.3338C16 13.8269 16.1125 13.5821 16.4614 13.209C16.754 12.9655 17.0782 12.986 17.4446 13.0156Z" fill="white"/>
</g>
</svg>
