<svg width="60" height="60" viewBox="0 0 60 60" fill="none" xmlns="http://www.w3.org/2000/svg">
<path d="M10.759 7.02969C12.0705 6.06554 13.2939 5.04174 14.6427 4.22548C16.6308 3.02231 18.7294 1.99297 20.9836 1.38408C22.6785 0.926264 24.4015 0.497018 26.1398 0.295515C28.1538 0.062056 30.2086 -0.0774994 32.2271 0.0459194C35.4465 0.242762 38.5673 1.00584 41.5574 2.28097C44.2313 3.42122 46.7282 4.8566 48.9553 6.70937C51.0802 8.47704 52.9734 10.4746 54.5678 12.7627C56.4074 15.4027 57.8427 18.2279 58.7372 21.3083C59.1753 22.8169 59.5479 24.3691 59.7123 25.9267C59.9298 27.9874 60.0836 30.0838 59.9503 32.1444C59.8213 34.1401 59.4013 36.1367 58.9173 38.0851C58.1336 41.2399 56.6682 44.1191 54.8897 46.8242C53.4818 48.9655 51.7378 50.8447 49.8259 52.5336C47.0887 54.9515 44.0273 56.8975 40.5431 58.0582C38.5748 58.7139 36.5706 59.3734 34.53 59.6706C32.3217 59.9923 30.0422 60.0675 27.8118 59.9386C24.5507 59.7501 21.3858 58.9664 18.3713 57.6489C15.5741 56.4263 12.9805 54.8874 10.669 52.8764C8.00133 50.5554 5.74364 47.919 3.9765 44.8334C2.37574 42.0383 1.27591 39.0709 0.590277 35.9511C-0.0011375 33.26 -0.105903 30.5017 0.0903299 27.7667C0.324346 24.5052 1.07791 21.3383 2.39509 18.3218C3.61738 15.5226 5.11536 12.8919 7.17994 10.6283C8.30862 9.39079 9.54122 8.24822 10.759 7.02969ZM23.301 55.3021C23.3631 55.7534 23.4252 56.2046 23.4892 56.6689C25.5418 57.1534 27.6243 57.5092 29.7536 57.4316C31.067 57.3838 32.3919 57.3599 33.6865 57.1614C35.2592 56.9201 36.8072 56.5135 38.3608 56.1565C38.5221 56.1194 38.7491 55.9516 38.7742 55.8133C38.8629 55.3248 38.8864 54.8233 38.9178 54.3257C39.0074 52.9065 39.0959 51.4872 39.1715 50.0673C39.2639 48.3306 39.3512 46.5935 39.4248 44.8559C39.4809 43.5326 39.5085 42.2082 39.5593 40.8846C39.5654 40.7246 39.6793 40.5643 39.6692 40.4089C39.6426 39.9986 39.9116 39.4704 39.1861 39.3307C37.9714 39.0968 36.9291 38.4528 36.0194 37.6675C35.138 36.9068 34.1946 36.1223 34.0381 34.8312C33.9581 34.1715 33.8509 33.5084 33.852 32.847C33.854 31.5866 33.9096 30.3256 33.9714 29.0662C34.0379 27.7095 34.101 26.3509 34.2307 24.9994C34.4068 23.1638 34.655 21.3353 34.8526 19.5016C34.9974 18.1588 35.0879 16.8099 35.2434 15.4685C35.4255 13.8982 35.4447 13.9003 36.9178 13.9933C36.9339 13.9943 36.9486 14.0191 37.0147 14.0781C37.0147 20.141 37.0147 26.2493 37.0147 32.3818C37.6671 32.3818 38.2688 32.3818 38.9213 32.3818C38.9213 26.248 38.9213 20.1398 38.9213 14.0104C39.4892 14.0104 40.0062 14.0104 40.5738 14.0104C40.5738 20.1451 40.5738 26.2534 40.5738 32.3799C41.1843 32.3799 41.7436 32.3799 42.3536 32.3799C42.3536 26.2443 42.3536 20.1361 42.3536 14.0124C43.0064 14.0124 43.6081 14.0124 44.2602 14.0124C44.2602 20.1491 44.2602 26.2574 44.2602 32.378C44.8709 32.378 45.4303 32.378 46.0393 32.378C46.0393 26.2396 46.0393 20.1306 46.0393 13.9838C46.3385 13.9838 46.6013 13.9356 46.8332 13.9996C47.0084 14.048 47.259 14.2239 47.2791 14.3702C47.4397 15.5408 47.5612 16.7171 47.679 17.8933C47.7764 18.8663 47.8452 19.8421 47.9397 20.8155C48.1022 22.4894 48.2809 24.1617 48.4403 25.8359C48.5017 26.4802 48.5212 27.1285 48.5735 27.7738C48.7578 30.0487 48.9773 32.3247 48.6848 34.6043C48.6263 35.0601 48.5219 35.575 48.2585 35.9283C47.0078 37.6062 45.4182 38.8392 43.3628 39.4101C43.2077 39.4532 43.0048 39.6953 43.0021 39.8479C42.9936 40.3449 43.0792 40.8426 43.1079 41.3413C43.1983 42.9086 43.2875 44.4762 43.3618 46.0444C43.4551 48.014 43.5285 49.9846 43.6209 51.9543C43.6487 52.549 43.711 53.1421 43.7595 53.7605C54.1827 47.7983 60.1012 35.303 56.403 22.2066C54.5964 15.8091 50.7465 10.744 45.2333 7.0638C39.3832 3.1588 32.876 1.84179 25.9268 2.81145C20.021 3.6355 14.9441 6.25962 10.7263 10.4074C5.88983 15.1636 3.16131 21.0251 2.6234 27.7921C1.70414 39.3562 8.15546 50.1851 18.2838 54.7421C18.39 53.0155 18.5119 51.2889 18.5973 49.5606C18.6647 48.1956 18.6812 46.8282 18.7314 45.4623C18.763 44.6039 18.8071 43.7458 18.8597 42.8884C18.9582 41.2812 19.067 39.6746 19.1686 38.1131C19.0505 38.0436 19.0205 38.0153 18.9856 38.0068C16.1747 37.326 14.1649 35.5857 12.9186 33.0598C11.6472 30.4829 11.1517 27.71 11.3449 24.8081C11.4536 23.1756 11.8938 21.6595 12.5823 20.2118C13.3898 18.5141 14.5067 17.0284 16.0162 15.8845C17.6164 14.6719 19.3492 13.8824 21.452 14.0959C23.61 14.3149 25.277 15.4418 26.7309 16.8863C27.8488 17.997 28.696 19.3395 29.3273 20.8155C30.0079 22.407 30.365 24.0677 30.3456 25.7703C30.32 28.0194 29.9601 30.223 29.0273 32.3138C28.2368 34.0857 27.2133 35.6682 25.5546 36.7095C24.7021 37.2448 23.7176 37.5682 22.7992 38.0011C22.658 38.0677 22.4411 38.2142 22.4464 38.3137C22.4962 39.2454 22.6065 40.1737 22.6614 41.1053C22.7612 42.7992 22.8334 44.4947 22.9202 46.1893C23.0026 47.7995 23.1008 49.4089 23.17 51.0197C23.2296 52.4063 23.2583 53.7943 23.301 55.3021ZM14.9198 25.6234C15.0898 24.5487 15.2115 23.4628 15.4555 22.4052C15.5427 22.0275 15.5476 21.7448 15.2205 21.6525C15.0538 21.6054 14.7118 21.8375 14.5888 22.0319C13.6068 23.5851 13.1512 25.3076 13.0117 27.1297C12.8835 28.8038 13.3227 30.3301 13.9951 31.8531C14.7804 33.632 15.9869 34.9489 17.6948 35.8241C17.853 35.9052 18.0955 35.8214 18.2989 35.8142C18.2521 35.6096 18.2564 35.3723 18.1501 35.2057C17.5792 34.3106 16.8431 33.494 16.4196 32.5371C15.4691 30.3896 14.6358 28.1826 14.9198 25.6234Z" fill="white"/>
<path d="M14.9206 25.6846C14.6366 28.1818 15.4699 30.3888 16.4204 32.5363C16.8439 33.4932 17.5799 34.3098 18.1509 35.2049C18.2572 35.3715 18.2529 35.6087 18.2997 35.8134C18.0963 35.8206 17.8538 35.9043 17.6956 35.8233C15.9877 34.948 14.7812 33.6311 13.9959 31.8522C13.3235 30.3292 12.8843 28.803 13.0125 27.1289C13.152 25.3068 13.6076 23.5842 14.5896 22.031C14.7126 21.8366 15.0546 21.6046 15.2213 21.6517C15.5484 21.744 15.5434 22.0267 15.4563 22.4044C15.2123 23.462 15.0906 24.5479 14.9206 25.6846Z" fill="#A82315"/>
</svg>
