<svg width="60" height="60" viewBox="0 0 60 60" fill="none" xmlns="http://www.w3.org/2000/svg">
<circle cx="30" cy="30" r="28.75" stroke="white" stroke-width="2.5"/>
<path d="M40.504 22.2594C40.5613 22.3099 40.5613 22.3099 40.6197 22.3615C43.7208 25.1061 45.7484 28.9667 46.0168 33.1318C46.1788 37.5826 44.9364 41.6319 41.9588 44.9996C41.898 45.0698 41.8372 45.14 41.7746 45.2123C41.4257 45.6095 41.063 45.9634 40.6572 46.3013C40.5931 46.3576 40.5291 46.414 40.4631 46.472C37.907 48.6835 34.4259 50.1911 31.0197 50.2244C30.956 50.2251 30.8924 50.2259 30.8268 50.2267C27.8868 50.2541 25.199 49.7649 22.5875 48.3685C22.5411 48.3439 22.4947 48.3192 22.4469 48.2938C21.3476 47.7033 20.3855 46.9671 19.4483 46.1481C19.3834 46.0928 19.3186 46.0374 19.2518 45.9803C18.873 45.6529 18.5448 45.3059 18.2232 44.9231C18.1611 44.8533 18.099 44.7835 18.0351 44.7116C15.1956 41.4991 14.047 37.3557 14.2418 33.1318C14.3941 30.9301 15.0249 28.7898 16.0793 26.8534C16.1263 26.765 16.1733 26.6767 16.2217 26.5857C17.2176 24.773 18.578 23.1431 20.2139 21.8766C20.2563 21.8437 20.2986 21.8108 20.3422 21.777C26.1407 17.3069 34.6723 17.2588 40.504 22.2594ZM21.8218 22.7188C21.7748 22.7539 21.7277 22.7889 21.6793 22.825C21.1581 23.2164 20.6583 23.6183 20.2139 24.097C19.8311 24.4798 19.8311 24.4798 19.6983 24.6045C17.2646 26.936 15.9469 30.5411 15.8278 33.8538C15.7734 36.4621 16.3538 38.9584 17.6107 41.2479C17.6373 41.2964 17.664 41.3449 17.6914 41.3949C18.275 42.4424 19.0078 43.364 19.8311 44.234C19.8975 44.3053 19.964 44.3767 20.0324 44.4502C20.9109 45.3741 21.94 46.1318 23.0469 46.7607C23.1757 46.8357 23.1757 46.8357 23.3071 46.9123C24.5337 47.6094 25.8825 48.0698 27.258 48.3685C27.3417 48.3873 27.3417 48.3873 27.427 48.4065C29.1818 48.7843 31.2517 48.7648 33.0005 48.3685C33.0612 48.355 33.1218 48.3415 33.1843 48.3275C35.7834 47.7299 38.0853 46.4848 40.0116 44.6447C40.1171 44.5441 40.224 44.4448 40.3309 44.3455C41.2697 43.4475 42.0268 42.3858 42.6479 41.2479C42.6742 41.1999 42.7005 41.1519 42.7276 41.1024C44.5273 37.7742 44.8844 33.896 43.852 30.2663C43.2288 28.1941 42.1596 26.4011 40.7337 24.7861C40.6785 24.7214 40.6232 24.6568 40.5662 24.5902C40.2389 24.2111 39.8951 23.879 39.5087 23.561C39.4701 23.5284 39.4316 23.4957 39.3918 23.4621C34.503 19.3258 27.0276 18.8081 21.8218 22.7188Z" fill="white"/>
<ellipse cx="30" cy="42" rx="6" ry="3" fill="#A82315"/>
<path d="M19.9669 33.7917C20.0406 33.791 20.1143 33.7903 20.1902 33.7896C20.2709 33.79 20.3516 33.7904 20.4348 33.7908C20.5637 33.7901 20.5637 33.7901 20.6952 33.7894C20.9841 33.7881 21.2731 33.7885 21.562 33.7888C21.7688 33.7884 21.9755 33.7876 22.1823 33.7869C22.6862 33.7853 23.1901 33.7849 23.694 33.7851C24.1036 33.7852 24.5132 33.7849 24.9227 33.7843C25.0407 33.7841 25.1586 33.784 25.2765 33.7838C25.3352 33.7837 25.3939 33.7837 25.4544 33.7836C26.5647 33.7821 27.6751 33.7822 28.7855 33.7827C29.8014 33.7832 30.8173 33.7816 31.8332 33.779C32.8761 33.7764 33.9191 33.7753 34.962 33.7756C35.5476 33.7758 36.1332 33.7754 36.7188 33.7735C37.2174 33.7719 37.7159 33.7716 38.2145 33.7731C38.4689 33.7738 38.7232 33.7736 38.9776 33.7723C39.2534 33.7709 39.5291 33.7718 39.8049 33.7734C39.9255 33.772 39.9255 33.772 40.0485 33.7705C40.3978 33.7748 40.6546 33.7793 40.9357 34.001C41.2712 34.3765 41.2228 34.7842 41.2035 35.2655C41.0543 37.681 40.163 39.9464 38.5902 41.7839C38.5368 41.8467 38.4834 41.9094 38.4284 41.9741C36.79 43.8482 34.5973 45.0762 32.1586 45.5357C32.0679 45.5529 31.9772 45.5702 31.8837 45.588C29.0575 46.0408 26.0658 45.3603 23.7363 43.6981C23.473 43.5025 23.2197 43.2988 22.9706 43.0855C22.9078 43.0321 22.8451 42.9787 22.7804 42.9237C21.359 41.6811 20.2995 40.1191 19.6783 38.3384C19.6608 38.2884 19.6433 38.2384 19.6253 38.1869C19.2731 37.1517 18.6645 35.2704 19.1632 34.2301C19.392 33.9196 19.5788 33.7924 19.9669 33.7917ZM20.7502 35.4289C20.7999 36.0753 20.843 36.6093 21.023 37.2138C21.0431 37.2825 21.0633 37.3511 21.084 37.4219C21.4782 38.7048 22.1891 39.9739 23.1237 40.9417C23.2679 40.8032 23.4068 40.6643 23.532 40.5083C24.8127 38.9293 26.8936 38.0779 28.8704 37.8356C31.023 37.6227 33.0254 37.9815 34.915 39.0275C35.0284 39.09 35.0284 39.09 35.1441 39.1537C35.5646 39.4036 35.9279 39.6994 36.2884 40.0277C36.3509 40.0845 36.3509 40.0845 36.4147 40.1424C36.6753 40.3878 36.8709 40.6369 37.0588 40.9417C37.4084 40.6727 37.6527 40.4067 37.8915 40.0372C37.9404 39.9624 37.9404 39.9624 37.9903 39.886C38.8364 38.563 39.509 37.0189 39.509 35.4289C33.3186 35.4289 27.1282 35.4289 20.7502 35.4289ZM24.7316 41.4776C24.5851 41.6771 24.4677 41.8722 24.3488 42.0902C26.3157 43.6277 28.7333 44.3013 31.2153 44.0477C32.9521 43.8334 34.5357 43.1647 35.9103 42.0902C35.1118 40.7171 33.7164 39.9913 32.2352 39.5635C29.6396 38.8977 26.6024 39.4689 24.7316 41.4776Z" fill="white"/>
<path d="M38.9732 27.0831C39.7453 27.7239 40.2448 28.6076 40.3514 29.6098C40.3831 29.9993 40.3805 30.2929 40.1217 30.6052C39.9139 30.7681 39.7754 30.8294 39.514 30.8684C39.1997 30.8235 39.0533 30.7459 38.8201 30.5286C38.7366 30.3045 38.7057 30.0749 38.667 29.8395C38.5309 29.2322 38.3326 28.7089 37.8056 28.3411C37.281 28.0391 36.8221 27.938 36.2169 28.0019C35.8198 28.1151 35.5113 28.243 35.2215 28.5379C35.171 28.5379 35.1204 28.5379 35.0684 28.5379C35.0172 28.6399 34.9662 28.742 34.9152 28.8441C34.89 28.894 34.8647 28.9438 34.8387 28.9952C34.6826 29.3214 34.5866 29.615 34.5324 29.9735C34.4758 30.3133 34.4348 30.5389 34.1496 30.7583C33.8174 30.8566 33.5564 30.8757 33.2356 30.7392C33.0214 30.5575 32.931 30.4321 32.8988 30.1509C32.8867 29.0697 33.1916 28.1807 33.9223 27.3699C35.3229 26.0328 37.4274 25.9377 38.9732 27.0831Z" fill="white"/>
<path d="M26.1104 27.1593C26.7632 27.7487 27.2805 28.6232 27.3612 29.5093C27.3627 29.656 27.3627 29.656 27.3642 29.8057C27.3663 29.9037 27.3685 30.0017 27.3708 30.1027C27.3298 30.4189 27.261 30.5422 27.0292 30.758C26.7193 30.8733 26.4278 30.8669 26.12 30.7532C25.8018 30.4631 25.7249 30.1566 25.6654 29.7435C25.5721 29.195 25.3731 28.7378 24.9254 28.3904C24.3789 28.0518 23.9194 27.9353 23.2774 28.0016C22.7404 28.1465 22.2596 28.3772 21.945 28.8531C21.7465 29.2126 21.6471 29.5326 21.593 29.9397C21.5297 30.4133 21.5297 30.4133 21.325 30.6192C21.0069 30.8498 20.8406 30.8443 20.4594 30.7971C20.2261 30.7427 20.1218 30.6454 19.9851 30.4517C19.7629 29.7851 19.9874 29.0068 20.2522 28.3823C20.7783 27.3478 21.6542 26.7566 22.7223 26.365C23.9392 26.1221 25.1345 26.3908 26.1104 27.1593Z" fill="white"/>
<path d="M45.7403 16.043C46.0179 16.1685 46.0536 16.315 46.1623 16.5915C46.1905 16.6679 46.2186 16.7443 46.2476 16.823C46.2878 16.9273 46.3282 17.0316 46.3687 17.1358C46.707 18.0156 46.707 18.0156 46.707 18.2012C46.8443 18.2415 46.8443 18.2415 46.9845 18.2825C47.4604 18.4399 48.1849 18.6837 48.5446 19.0434C48.5477 19.1965 48.5478 19.3497 48.5446 19.5028C48.4106 19.5698 48.2766 19.6368 48.1426 19.7038C48.0588 19.7477 47.975 19.7916 47.8887 19.8369C47.6258 19.9622 47.6258 19.9622 47.3844 20.0277C47.0847 20.1222 46.9345 20.1991 46.707 20.4216C46.4251 20.9711 46.2491 21.5679 46.0752 22.1587C46.0179 22.3358 46.0179 22.3358 45.9413 22.4123C45.7595 22.4411 45.7595 22.4411 45.5585 22.4123C45.3694 22.1766 45.3011 21.9386 45.2316 21.6506C45.0355 20.8329 45.0355 20.8329 44.5254 20.1943C44.1034 19.9536 43.6571 19.7848 43.1941 19.6403C43.0318 19.5794 43.0318 19.5794 42.8786 19.4262C42.8451 19.2396 42.8451 19.2396 42.8786 19.0434C43.1025 18.8752 43.3287 18.7894 43.5929 18.7078C44.0952 18.5387 44.5616 18.3782 44.8486 17.9076C45.0665 17.4186 45.2177 16.9113 45.3478 16.3926C45.4241 16.151 45.4816 16.0634 45.7403 16.043Z" fill="white"/>
<path d="M21.9269 11C22.1294 11.0808 22.1294 11.0808 22.2673 11.3481C22.3075 11.4594 22.346 11.5713 22.383 11.6837C22.4032 11.7399 22.4234 11.796 22.4442 11.8539C22.5266 12.0889 22.5888 12.2849 22.5888 12.5355C22.6876 12.5666 22.6876 12.5666 22.7883 12.5983C23.0456 12.6877 23.2861 12.7908 23.5315 12.9088C23.6118 12.9465 23.692 12.9842 23.7747 13.023C23.967 13.148 23.967 13.148 24.0325 13.3161C24.0362 13.3617 24.0398 13.4073 24.0436 13.4543C23.9578 13.5106 23.8715 13.5663 23.7852 13.6218C23.7015 13.6764 23.7015 13.6764 23.6162 13.7322C23.431 13.8371 23.431 13.8371 23.2387 13.8967C22.9398 13.996 22.7338 14.087 22.5841 14.378C22.4787 14.6385 22.3883 14.9008 22.308 15.1701C22.2887 15.2336 22.2695 15.2971 22.2497 15.3625C22.2337 15.4206 22.2177 15.4787 22.2012 15.5386C22.1294 15.6747 22.1294 15.6747 21.9783 15.7373C21.8232 15.7513 21.8232 15.7513 21.67 15.6747C21.6241 15.5434 21.6241 15.5434 21.5836 15.3733C21.3753 14.5621 21.3753 14.5621 20.8119 13.981C20.5822 13.8582 20.347 13.7583 20.1058 13.6604C20.0156 13.6176 19.9254 13.5749 19.8324 13.5309C19.7771 13.3697 19.7771 13.3697 19.7559 13.2246C19.8417 13.1683 19.9279 13.1126 20.0143 13.0571C20.07 13.0208 20.1258 12.9845 20.1833 12.9471C20.3684 12.8418 20.3684 12.8418 20.5607 12.7796C20.8533 12.6792 21.0616 12.5873 21.219 12.3085C21.3801 11.9514 21.5074 11.5835 21.6243 11.2099C21.6945 11.0116 21.7099 11.005 21.9269 11Z" fill="white"/>
<path d="M15.1081 17.8616C15.4906 18.0784 15.7126 18.4022 15.8498 18.8139C15.9099 19.3133 15.833 19.7011 15.5435 20.1155C15.1977 20.4525 14.8822 20.5819 14.4046 20.6036C13.9593 20.593 13.6829 20.4743 13.3611 20.1541C13.0178 19.7619 12.9937 19.4469 13.001 18.9455C13.0331 18.5244 13.2107 18.2966 13.5145 18.0243C13.9649 17.648 14.5774 17.6255 15.1081 17.8616Z" fill="white"/>
<path d="M41.0408 13.0721C41.2683 13.2319 41.3917 13.3476 41.4718 13.617C41.5342 14.0072 41.5082 14.2738 41.2705 14.6034C40.9736 14.8658 40.737 14.9613 40.3484 14.939C39.996 14.8701 39.7949 14.6807 39.5908 14.3977C39.4829 14.0613 39.4842 13.7935 39.586 13.4549C39.9769 12.9301 40.4555 12.8216 41.0408 13.0721Z" fill="white"/>
</svg>
