<svg width="99" height="24" viewBox="0 0 99 24" fill="none" xmlns="http://www.w3.org/2000/svg">
<path d="M11.78 10.72C11.78 12.32 11.29 13.52 10.33 14.3C11.32 15.57 11.74 17.49 11.73 20H8.33C8.33 17.13 7.8 15.43 5.97 15.43H4.32V20H0.92V6H6.35C9.91 6 11.78 7.59 11.78 10.72ZM4.32 12.53H6.35C7.56 12.53 8.38 12.09 8.38 10.72C8.38 9.34 7.56 8.9 6.35 8.9H4.32V12.53ZM18.6472 8.82C22.2072 8.82 23.8872 10.09 23.8872 13.02V15.98C23.8872 18.91 22.2072 20.18 18.6472 20.18C15.0872 20.18 13.4172 18.91 13.4172 15.98V13.02C13.4172 10.09 15.0872 8.82 18.6472 8.82ZM18.6472 17.45C19.8572 17.45 20.6472 17.07 20.6472 15.73V13.27C20.6472 11.93 19.8572 11.55 18.6472 11.55C17.4472 11.55 16.6472 11.93 16.6472 13.27V15.73C16.6472 17.07 17.4472 17.45 18.6472 17.45ZM30.5027 8.82C34.0627 8.82 35.7427 10.09 35.7427 13.02V15.98C35.7427 18.91 34.0627 20.18 30.5027 20.18C26.9427 20.18 25.2727 18.91 25.2727 15.98V13.02C25.2727 10.09 26.9427 8.82 30.5027 8.82ZM30.5027 17.45C31.7127 17.45 32.5027 17.07 32.5027 15.73V13.27C32.5027 11.93 31.7127 11.55 30.5027 11.55C29.3027 11.55 28.5027 11.93 28.5027 13.27V15.73C28.5027 17.07 29.3027 17.45 30.5027 17.45ZM49.613 8.82C52.353 8.82 53.893 10.09 53.893 13.02V20H50.663V13.6C50.663 12.09 50.113 11.55 48.973 11.55C47.833 11.55 47.293 12.09 47.293 13.6V20H44.063V13.6C44.063 12.09 43.513 11.55 42.373 11.55C41.203 11.55 40.693 12.09 40.693 13.6V20H37.463V9H40.693V10.11C41.063 9.08 42.013 8.82 43.013 8.82C44.833 8.82 46.133 9.38 46.793 10.62C47.183 9.42 48.123 8.82 49.613 8.82ZM57.3047 7.69C56.2847 7.68 55.4547 6.86 55.4547 5.83C55.4547 4.82 56.2847 4 57.3047 3.99C58.3347 3.98 59.1547 4.82 59.1547 5.83C59.1547 6.86 58.3347 7.7 57.3047 7.69ZM55.6847 9H58.9247V20H55.6847V9ZM71.1847 9V11.67C71.1847 12.89 70.8947 13.83 70.2947 14.5C70.8947 15.17 71.1847 16.11 71.1847 17.33V20H67.9547V17.58C67.9547 16.24 67.1647 15.87 65.9547 15.87C64.7447 15.87 63.9547 16.24 63.9547 17.58V20H60.7247V17.33C60.7247 16.11 61.0147 15.17 61.6147 14.5C61.0147 13.83 60.7247 12.89 60.7247 11.67V9H63.9547V11.42C63.9547 12.76 64.7447 13.13 65.9547 13.13C67.1647 13.13 67.9547 12.76 67.9547 11.42V9H71.1847ZM74.8294 20.18C73.7494 20.18 72.8894 19.31 72.8894 18.24C72.8894 17.17 73.7494 16.32 74.8294 16.32C75.8894 16.31 76.7594 17.17 76.7594 18.24C76.7594 19.31 75.8894 20.19 74.8294 20.18ZM79.4891 6.5H82.7291V9H84.8791V11.9H82.7391V15.73C82.7391 16.57 82.8791 17.1 83.4891 17.1C83.8691 17.1 84.4191 17.02 84.6791 16.88L85.2491 19.61C84.8391 19.97 83.6191 20.17 82.4891 20.17C80.2791 20.17 79.4891 18.91 79.4891 15.89V11.9H78.3391V9H79.4891V6.5ZM94.5956 9H97.9156L93.9756 20H90.5756L86.6356 9H89.9556L92.2756 16.08L94.5956 9Z" fill="white"/>
</svg>
